<svg width="43" height="22" viewBox="0 0 43 22" xmlns="http://www.w3.org/2000/svg"><title>amex</title><path d="M39.882 6l-3.514 4.454L39.784 15h-2.229l-2.411-2.96L32.752 15h-8.366V6h8.665l2.173 2.923L37.555 6h2.327zM26.25 9.418h4.414v1.823H26.25v1.937h4.414v1.306l3.272-4.107-3.272-4.086v1.533H26.25v1.595-.001zM22.719 6v9h-1.863V7.784L18.194 15H16.44l-2.648-7.327V15H9.989l-.75-2.05H5.335L4.656 15H2.612l3.334-9H8.79l3.139 8.727V6h3.035l2.444 6.038L19.69 6h3.028zM5.947 11.127h2.648L7.318 7.48l-1.37 3.647zm30.463-6.9l-1.13 1.418-1.043-1.402A.605.605 0 0 0 33.753 4H18.725a.603.603 0 0 0-.565.39l-.814 2.156-.879-2.17A.605.605 0 0 0 15.91 4H4.973a.604.604 0 0 0-.565.393L.038 16.19a.601.601 0 0 0 .565.81h5.063c.26 0 .49-.166.57-.412l.546-1.64h1.06l.604 1.656a.603.603 0 0 0 .566.396h24.41a.607.607 0 0 0 .47-.224l1.26-1.56 1.271 1.562c.115.14.288.222.469.222h4.992a.95.95 0 0 0 .76-1.523l-3.75-4.993 3.9-4.943a.951.951 0 0 0-.748-1.54h-5.163a.598.598 0 0 0-.47.227l-.003-.001z" fill="#525F7F" fill-rule="evenodd"/></svg>