<svg width="36" height="22" viewBox="0 0 36 22" xmlns="http://www.w3.org/2000/svg"><title>mastercard</title><path d="M25.5 21a10.45 10.45 0 0 1-6.525-2.282 11.813 11.813 0 0 0 2.727-4.5H20.31A10.526 10.526 0 0 1 18 17.842a10.54 10.54 0 0 1-2.31-3.623h-1.36a11.809 11.809 0 0 0 2.72 4.48 10.453 10.453 0 0 1-6.55 2.3C4.7 21 0 16.3 0 10.5 0 4.7 4.7 0 10.5 0c2.48 0 4.753.864 6.55 2.3a11.795 11.795 0 0 0-2.86 4.92h1.343A10.514 10.514 0 0 1 18 3.157a10.52 10.52 0 0 1 2.467 4.06h1.375a11.822 11.822 0 0 0-2.867-4.936A10.454 10.454 0 0 1 25.5 0C31.3 0 36 4.7 36 10.5S31.3 21 25.5 21zM4.874 7.994l-1.062 3.088-.044-3.088H2.193l-.856 4.988h1.024l.662-3.812.09 3.812h.747l1.4-3.834-.628 3.834h1.097l.845-4.988h-1.7zm3.51.842c-.403 0-.764.058-1.31.215 0 0-.14.844-.15.912.18-.058.623-.188 1.157-.182.514 0 .704.1.704.37 0 .07-.008.13-.042.262a3.885 3.885 0 0 0-.446-.032c-1.216 0-1.923.575-1.923 1.564 0 .656.407 1.11 1 1.11.502 0 .872-.16 1.148-.492l-.02.42h.907c.028-.306.233-1.567.327-2.153.055-.34.09-.597.09-.806 0-.777-.5-1.188-1.44-1.188h-.002zm3.51 0c-1.226 0-1.65.622-1.646 1.373 0 .512.255.865.834 1.13.443.204.512.264.512.448 0 .254-.196.367-.63.367-.325 0-.63-.05-.98-.16 0 0-.144.894-.15.938.248.052.47.1 1.138.12 1.157 0 1.69-.43 1.69-1.356 0-.558-.222-.886-.772-1.13-.46-.207-.512-.253-.512-.442 0-.22.182-.332.537-.332.215 0 .508.023.786.062l.157-.94a7.572 7.572 0 0 0-.964-.08v.002zm1.724-.525c-.428.589-.412 2.39-.475 2.77-.07.432-.158.902-.15 1.082 0 .576.306.89.865.89.254 0 .487-.04.787-.13l.145-.9a.88.88 0 0 1-.295.038c-.26 0-.375-.092-.375-.3.002-.127.183-1.088.31-1.86h.56l.15-.975h-.56l.126-.614-1.088-.001zm3.454.526c-1.096 0-1.905 1.02-1.905 2.407 0 1.188.636 1.808 1.855 1.81.382 0 .743-.053 1.116-.165l.183-1.01a2.59 2.59 0 0 1-1.132.257c-.633 0-1.02-.246-.946-.834h2.168c.094-.41.134-.698.134-.996 0-.898-.573-1.468-1.472-1.468l-.001-.001zm3.135.704c.025-.206.074-.41.064-.615h-1.005c-.137 1.257-.38 2.528-.57 3.784l-.05.272h1.095c.392-2.48.486-2.965 1.1-2.904.1-.508.28-.954.415-1.177-.457-.09-.714.16-1.048.64h-.001zm3.506-1.67c-1.452 0-2.466 1.245-2.466 3.03 0 1.326.733 2.153 1.912 2.153.303 0 .564-.04.967-.147l.192-1.138c-.364.176-.66.257-.93.257-.637 0-1.022-.458-1.022-1.214 0-1.097.572-1.868 1.39-1.868.304 0 .588.077.98.27l.178-1.084c-.16-.06-.725-.258-1.203-.258l.002-.001zm2.93.966c-.405 0-.766.058-1.31.215l-.152.912a3.738 3.738 0 0 1 1.16-.182c.51 0 .702.1.702.37 0 .07-.01.13-.042.262a3.901 3.901 0 0 0-.447-.032c-1.216 0-1.922.575-1.922 1.564 0 .656.407 1.11 1 1.11.5 0 .87-.16 1.148-.492l-.02.42h.906c.03-.306.233-1.567.327-2.153.057-.34.093-.597.09-.806 0-.777-.496-1.188-1.437-1.188h-.003zm3.135.704c.027-.206.075-.41.067-.615h-1.008c-.136 1.257-.38 2.528-.57 3.784l-.05.272h1.094c.394-2.48.49-2.965 1.102-2.904.1-.508.28-.954.417-1.177-.46-.09-.716.16-1.052.64zm3.566-.105c-.3-.383-.62-.552-1.045-.552-.968 0-1.784 1.137-1.784 2.487 0 1.013.526 1.683 1.322 1.683.403 0 .71-.137 1.01-.45l-.05.38h1.035l.835-4.99h-1.082l-.242 1.442h.001zm-1.127 2.61c-.373 0-.56-.27-.56-.8 0-.798.35-1.362.85-1.362.374 0 .58.28.58.794 0 .805-.36 1.368-.87 1.368zm-6.135.144c-.24 0-.392-.162-.392-.415 0-.41.313-.616.935-.616.078 0 .128.002.243.015-.02.6-.34 1.014-.786 1.014v.002zm-9.758-1.71c.102-.464.35-.722.696-.722.622 0 .513.64.507.723h-1.203v-.001zm-8.5 1.71c-.24 0-.392-.162-.392-.415 0-.41.314-.616.934-.616.08 0 .13.002.244.015-.018.6-.34 1.014-.785 1.014l-.001.002z" fill="#525F7F" fill-rule="evenodd"/></svg>