<svg width="41" height="22" viewBox="0 0 41 22" xmlns="http://www.w3.org/2000/svg"><title>visa</title><path d="M20.3 4.23l-2.74 12.571h-3.31l2.74-12.57h3.31zm13.938 8.118l1.745-4.722 1.003 4.721H34.24v.001zm3.7 4.453H41l-2.677-12.57h-2.825c-.637 0-1.173.36-1.412.92l-4.97 11.65h3.48l.69-1.877h4.248l.405 1.876-.001.001zm-8.65-4.104c.014-3.318-4.673-3.502-4.641-4.984.01-.45.447-.93 1.404-1.053.475-.06 1.784-.108 3.269.562l.581-2.667a9.093 9.093 0 0 0-3.1-.555c-3.274 0-5.579 1.708-5.598 4.156-.02 1.81 1.646 2.819 2.9 3.421 1.292.616 1.726 1.012 1.72 1.563-.01.842-1.031 1.216-1.982 1.23-1.667.025-2.633-.442-3.403-.794l-.601 2.756c.775.348 2.204.652 3.683.668 3.482 0 5.76-1.69 5.77-4.303h-.003zm-13.72-8.466l-5.37 12.57h-3.5L4.055 6.77c-.16-.618-.3-.843-.788-1.105-.796-.426-2.11-.823-3.267-1.07l.079-.363h5.638c.716 0 1.362.467 1.528 1.278l1.394 7.277 3.447-8.555h3.482z" fill="#525F7F" fill-rule="evenodd"/></svg>